<?xml version="1.0" encoding="utf-8"?>
<!-- Generator: Adobe Illustrator 19.1.1, SVG Export Plug-In . SVG Version: 6.00 Build 0)  -->
<svg version="1.1" id="Layer_1" xmlns="http://www.w3.org/2000/svg" xmlns:xlink="http://www.w3.org/1999/xlink" x="0px" y="0px"
	 viewBox="0 0 161.4 40" style="enable-background:new 0 0 161.4 40;" xml:space="preserve">
<style type="text/css">
	.st0{fill:#010101;}
</style>
<g>
	<polygon class="st0" points="49.9,17.8 49.9,1.2 62,1.2 62,4 52.9,4 52.9,8.1 61.2,8.1 61.2,10.8 52.9,10.8 52.9,15.1 62.2,15.1 
		62.2,17.8 	"/>
	<path class="st0" d="M68.7,18.1c-3.3,0-5.8-2.8-5.8-6.4c0-3.6,2.6-6.4,5.8-6.4c1.4,0,2.6,0.5,3.6,1.4l0.2,0.2V0h3v17.8h-2.8v-1.5
		l-0.2,0.2C71.5,17.6,70.2,18.1,68.7,18.1z M69.2,8c-1.9,0-3.3,1.6-3.3,3.7c0,2,1.5,3.6,3.3,3.6c1.8,0,3.3-1.6,3.3-3.6
		C72.6,9.7,71.1,8,69.2,8z"/>
	<path class="st0" d="M82.8,18.1c-3.3,0-5.8-2.8-5.8-6.4c0-3.6,2.6-6.4,5.8-6.4c1.4,0,2.6,0.5,3.6,1.4l0.2,0.2V0h3v17.8h-2.8v-1.5
		l-0.2,0.2C85.6,17.6,84.3,18.1,82.8,18.1z M83.3,8C81.4,8,80,9.6,80,11.7c0,2,1.5,3.6,3.3,3.6c1.8,0,3.3-1.6,3.3-3.6
		C86.6,9.7,85.1,8,83.3,8z"/>
	<path class="st0" d="M109,18.1c-3.1,0-5.3-1.6-5.8-4.1h3c0.5,1.1,1.8,1.5,2.8,1.5c1.5,0,2.4-0.5,2.4-1.2c0-0.8-0.6-1.1-2.7-1.5
		c-2.7-0.4-5.1-1.1-5.1-3.6c0-1.9,1.6-3.9,5.2-3.9c2.8,0,4.8,1.4,5.3,3.7h-3.1c-0.3-0.7-1.1-1-2.2-1c-1.5,0-2.2,0.6-2.2,1.1
		c0,0.8,1.1,1,2.6,1.2c2.9,0.5,5.2,1.1,5.2,3.8C114.3,16.4,112.1,18.1,109,18.1z"/>
	<polygon class="st0" points="116.8,17.8 116.8,8.2 115.3,8.2 115.3,5.6 116.8,5.6 116.8,2.4 119.8,2.4 119.8,5.6 122.3,5.6 
		122.3,8.2 119.8,8.2 119.8,17.8 	"/>
	<path class="st0" d="M128.8,18.1c-3.5,0-6.2-2.8-6.2-6.4c0-3.6,2.7-6.5,6.2-6.5c3.5,0,6.2,2.8,6.2,6.5
		C135,15.3,132.2,18.1,128.8,18.1z M128.8,7.9c-1.8,0-3.2,1.6-3.2,3.8c0,2.1,1.4,3.7,3.2,3.7c1.8,0,3.2-1.6,3.2-3.7
		C132,9.6,130.6,7.9,128.8,7.9z"/>
	<path class="st0" d="M144.5,17.8v-7.2c0-0.8-0.2-2.6-2.5-2.6c-1.5,0-2.6,1.1-2.6,2.6v7.2h-3V5.6h2.8V7l0.2-0.3
		c0.8-1,1.9-1.5,3.1-1.5c2.8,0,4.8,2.2,4.8,5.4v7.2H144.5z"/>
	<path class="st0" d="M155.1,18.1c-3.5,0-6.3-2.9-6.3-6.4c0-3.6,2.8-6.5,6.3-6.5c1.8,0,3.4,0.7,4.5,1.9c1.3,1.4,1.8,3.3,1.6,5.7
		h-9.5l0,0.2c0.4,1.6,1.7,2.6,3.3,2.6c1.2,0,2.2-0.5,2.7-1.5h3.2C160.2,16.6,158,18.1,155.1,18.1z M155.1,7.8
		c-1.5,0-2.7,0.9-3.2,2.5l-0.1,0.2h6.6l0-0.2C158,8.8,156.7,7.8,155.1,7.8z"/>
	<polygon class="st0" points="93.5,23.3 95.4,18.2 90.6,5.6 93.8,5.6 96.9,14.9 100,5.6 103.2,5.6 96.6,23.3 	"/>
</g>
<polygon class="st0" points="0,1.2 0,40 38.8,40 38.8,17.8 22.2,34.6 22.2,17.8 5.5,17.8 22.2,1.2 "/>
</svg>
