<?xml version="1.0" encoding="utf-8"?>
<!-- Generator: Adobe Illustrator 19.1.1, SVG Export Plug-In . SVG Version: 6.00 Build 0)  -->
<svg version="1.1" id="Layer_1" xmlns="http://www.w3.org/2000/svg" xmlns:xlink="http://www.w3.org/1999/xlink" x="0px" y="0px"
	 viewBox="0 0 148.2 40" style="enable-background:new 0 0 148.2 40;" xml:space="preserve">
<style type="text/css">
	.st0{fill:#777878;}
	.st1{fill:#FFFFFF;}
	.st2{fill:url(#SVGID_1_);}
	.st3{fill:url(#SVGID_2_);}
	.st4{fill:url(#SVGID_3_);}
	.st5{fill:url(#SVGID_4_);}
	.st6{fill:url(#SVGID_5_);}
	.st7{fill:url(#SVGID_6_);}
	.st8{fill:url(#SVGID_7_);}
</style>
<g>
	<g>
		<g>
			<path class="st0" d="M136.2,0H12.1c-0.5,0-0.9,0-1.4,0c-0.4,0-0.8,0-1.2,0C8.7,0,7.8,0.1,7,0.2C6.1,0.4,5.3,0.6,4.6,1
				c-0.8,0.4-1.4,0.9-2,1.5C1.9,3.1,1.4,3.8,1,4.6C0.6,5.3,0.4,6.1,0.2,7C0.1,7.8,0,8.7,0,9.5c0,0.4,0,0.8,0,1.2c0,0.5,0,0.9,0,1.4
				v15.9c0,0.5,0,0.9,0,1.4c0,0.4,0,0.8,0,1.2c0,0.8,0.1,1.7,0.2,2.5c0.1,0.8,0.4,1.6,0.8,2.4c0.4,0.8,0.9,1.4,1.5,2
				c0.6,0.6,1.3,1.1,2,1.5c0.8,0.4,1.6,0.6,2.4,0.8C7.8,39.9,8.7,40,9.5,40c0.4,0,0.8,0,1.2,0c0.5,0,0.9,0,1.4,0h124.1
				c0.5,0,0.9,0,1.4,0c0.4,0,0.8,0,1.2,0c0.8,0,1.7-0.1,2.5-0.2c0.9-0.2,1.6-0.4,2.4-0.8c0.8-0.4,1.4-0.9,2-1.5
				c0.6-0.6,1.1-1.3,1.5-2c0.4-0.8,0.6-1.6,0.8-2.4c0.2-0.8,0.2-1.7,0.2-2.5c0-0.4,0-0.8,0-1.2c0-0.5,0-0.9,0-1.4V12.1
				c0-0.5,0-0.9,0-1.4c0-0.4,0-0.8,0-1.2c0-0.8-0.1-1.7-0.2-2.5c-0.1-0.8-0.4-1.6-0.8-2.4c-0.4-0.8-0.9-1.5-1.5-2
				c-0.6-0.6-1.3-1.1-2-1.5c-0.8-0.4-1.6-0.6-2.4-0.8c-0.8-0.2-1.7-0.2-2.5-0.2c-0.4,0-0.8,0-1.2,0C137.1,0,136.6,0,136.2,0L136.2,0
				z"/>
		</g>
		<path class="st1" d="M136.2,0.8c0.5,0,0.9,0,1.4,0l0.1,0l1.1,0c0.7,0,1.6,0.1,2.4,0.2c0.8,0.1,1.5,0.4,2.2,0.7
			c0.7,0.4,1.3,0.8,1.8,1.3c0.5,0.5,1,1.2,1.3,1.8c0.3,0.7,0.6,1.4,0.7,2.2c0.2,0.8,0.2,1.7,0.2,2.4c0,0.4,0,0.8,0,1.2
			c0,0.5,0,0.9,0,1.4v15.9c0,0.5,0,0.9,0,1.4c0,0.4,0,0.8,0,1.1c0,0.7-0.1,1.6-0.2,2.4c-0.1,0.8-0.4,1.5-0.7,2.2
			c-0.4,0.7-0.8,1.3-1.4,1.9c-0.5,0.5-1.2,1-1.8,1.3c-0.7,0.3-1.4,0.6-2.2,0.7c-0.8,0.1-1.7,0.2-2.4,0.2c-0.4,0-0.8,0-1.2,0
			c-0.5,0-0.9,0-1.4,0H12.1c-0.5,0-0.9,0-1.4,0c-0.4,0-0.8,0-1.1,0c-0.7,0-1.6-0.1-2.4-0.2c-0.8-0.1-1.5-0.4-2.2-0.7
			c-0.7-0.3-1.3-0.8-1.9-1.4c-0.5-0.5-1-1.2-1.3-1.8c-0.3-0.7-0.6-1.4-0.7-2.2c-0.2-0.9-0.2-1.7-0.2-2.4c0-0.3,0-0.5,0-0.8l0-0.3
			v-1.4V12.1v-1.4l0-0.3c0-0.3,0-0.5,0-0.8C0.8,8.9,0.9,8,1,7.1c0.1-0.8,0.4-1.5,0.7-2.2c0.4-0.7,0.8-1.3,1.3-1.8
			c0.5-0.5,1.2-1,1.8-1.3C5.6,1.4,6.3,1.2,7.1,1C8,0.9,8.9,0.8,9.5,0.8l1.1,0c0.5,0,0.9,0,1.4,0H136.2"/>
	</g>
	<g>
		<path class="st0" d="M48.5,8.1l-2.1,7.6h-0.9l-1-4.1c-0.3-1.1-0.4-1.9-0.5-2.5h0c-0.1,0.5-0.3,1.4-0.6,2.5l-1.1,4.1h-0.9l-1.9-7.6
			h0.9l0.9,4c0.3,1,0.4,1.9,0.6,2.6h0c0.1-0.5,0.3-1.4,0.6-2.6l1.1-4h0.9l1,3.9c0.3,1.1,0.5,2,0.6,2.6h0c0.1-0.7,0.3-1.6,0.6-2.6
			l1.1-3.9H48.5z"/>
		<path class="st0" d="M53.8,12.9c0,0.8-0.2,1.5-0.7,2c-0.5,0.6-1.1,0.9-1.9,0.9c-0.8,0-1.4-0.3-1.9-0.8c-0.4-0.5-0.7-1.2-0.7-2
			c0-0.8,0.2-1.5,0.7-2c0.5-0.6,1.1-0.8,1.9-0.8c0.8,0,1.4,0.3,1.9,0.8C53.5,11.4,53.8,12.1,53.8,12.9z M52.9,12.9
			c0-0.6-0.1-1.1-0.4-1.5c-0.3-0.5-0.7-0.7-1.3-0.7c-0.6,0-1,0.2-1.3,0.7c-0.3,0.4-0.4,0.9-0.4,1.5c0,0.6,0.1,1,0.4,1.5
			c0.3,0.5,0.7,0.7,1.3,0.7c0.5,0,1-0.2,1.3-0.7C52.7,14,52.9,13.5,52.9,12.9z"/>
		<path class="st0" d="M57.4,10.9c-0.1,0-0.2,0-0.3,0c-0.5,0-0.8,0.2-1.1,0.6c-0.2,0.3-0.3,0.7-0.3,1.2v2.9h-0.9v-3.8
			c0-0.6,0-1.1,0-1.7h0.7l0,1.1h0c0.1-0.4,0.3-0.7,0.6-0.9c0.3-0.2,0.6-0.3,0.9-0.3c0.1,0,0.2,0,0.3,0V10.9z"/>
		<path class="st0" d="M62.8,15.7h-1L59.8,13l-0.5,0.6v2.1h-0.9v-8h0.9v5.1h0c0.2-0.2,0.3-0.4,0.5-0.6l1.7-1.9h1l-2.1,2.3L62.8,15.7
			z"/>
		<path class="st0" d="M66.7,14.2c0,0.5-0.2,0.9-0.5,1.2c-0.4,0.3-0.8,0.4-1.4,0.4c-0.6,0-1.1-0.1-1.5-0.4l0.2-0.7
			c0.4,0.2,0.8,0.4,1.3,0.4c0.4,0,0.6-0.1,0.8-0.3c0.2-0.2,0.3-0.4,0.3-0.6c0-0.2-0.1-0.5-0.2-0.6c-0.2-0.2-0.4-0.3-0.8-0.5
			c-0.9-0.4-1.4-0.9-1.4-1.5c0-0.4,0.2-0.8,0.5-1.1c0.3-0.3,0.8-0.4,1.3-0.4c0.5,0,0.9,0.1,1.3,0.3l-0.2,0.6
			c-0.3-0.2-0.7-0.3-1.1-0.3c-0.3,0-0.5,0.1-0.7,0.2c-0.2,0.2-0.2,0.3-0.2,0.6c0,0.2,0.1,0.4,0.3,0.6c0.1,0.1,0.4,0.3,0.8,0.4
			C66.2,12.9,66.7,13.5,66.7,14.2z"/>
		<path class="st0" d="M77.7,10.2L76,15.7h-0.8L74.3,13c-0.2-0.7-0.4-1.3-0.5-1.8h0c-0.1,0.6-0.3,1.2-0.5,1.8l-0.9,2.7h-0.8L70,10.2
			h0.9l0.8,2.8c0.2,0.7,0.3,1.2,0.4,1.7h0c0.1-0.4,0.3-1,0.5-1.7l0.9-2.9h0.7l0.9,2.8c0.2,0.6,0.4,1.2,0.5,1.8h0
			c0.1-0.5,0.2-1.1,0.4-1.8l0.8-2.8H77.7z"/>
		<path class="st0" d="M79.9,8.6c0,0.2-0.1,0.3-0.2,0.5c-0.1,0.1-0.2,0.1-0.4,0.1c-0.1,0-0.3,0-0.4-0.1c-0.1-0.1-0.2-0.3-0.2-0.5
			c0-0.2,0.1-0.3,0.2-0.4C79,8.1,79.2,8,79.3,8c0.2,0,0.3,0.1,0.4,0.2C79.8,8.3,79.9,8.4,79.9,8.6z M79.8,15.7h-0.9v-5.5h0.9V15.7z"
			/>
		<path class="st0" d="M84,10.9h-1.4V14c0,0.7,0.2,1.1,0.7,1.1c0.2,0,0.4,0,0.6-0.1l0,0.7c-0.2,0.1-0.5,0.1-0.8,0.1
			c-0.4,0-0.8-0.1-1-0.4c-0.2-0.3-0.4-0.7-0.4-1.4v-3.1h-0.9v-0.7h0.9v-1l0.9-0.3v1.3H84V10.9z"/>
		<path class="st0" d="M89.5,15.7h-0.9v-3.2c0-1.1-0.4-1.7-1.3-1.7c-0.3,0-0.6,0.1-0.9,0.3c-0.3,0.2-0.4,0.5-0.5,0.8
			c0,0.1-0.1,0.3-0.1,0.5v3.3h-0.9v-8h0.9v3.4h0c0.2-0.3,0.4-0.5,0.7-0.7c0.3-0.2,0.6-0.3,1-0.3c0.5,0,0.9,0.1,1.2,0.4
			c0.5,0.4,0.7,1,0.7,1.9V15.7z"/>
	</g>
	<g>
		<path d="M47.8,31.3l-1.3-3.9h-4.3l-1.3,3.9h-1.4l4.1-12.1h1.6l4.1,12.1H47.8z M42.4,26.3h3.7l-1.2-3.6c-0.1-0.2-0.2-0.5-0.3-0.9
			c-0.1-0.4-0.2-0.8-0.3-1.3h0c-0.1,0.5-0.2,0.9-0.3,1.3c-0.1,0.4-0.2,0.7-0.3,0.9L42.4,26.3z"/>
		<path d="M58.4,26.8c0,0.7-0.1,1.3-0.3,1.9c-0.2,0.6-0.5,1.1-0.8,1.5c-0.3,0.4-0.8,0.7-1.2,1c-0.5,0.2-1,0.3-1.6,0.3
			c-1.2,0-2.1-0.5-2.7-1.4h0v4.8h-1.4v-9.5c0-0.5,0-0.9,0-1.4c0-0.5,0-0.9-0.1-1.4h1.2v1.5h0.1c0.6-1.1,1.7-1.7,3-1.7
			c0.5,0,1,0.1,1.4,0.3c0.4,0.2,0.8,0.5,1.2,0.9c0.3,0.4,0.6,0.8,0.8,1.4C58.3,25.6,58.4,26.2,58.4,26.8z M57,26.9
			c0-0.5-0.1-0.9-0.2-1.3c-0.1-0.4-0.3-0.8-0.5-1.1c-0.2-0.3-0.5-0.5-0.8-0.7c-0.3-0.2-0.7-0.3-1.1-0.3c-0.3,0-0.6,0.1-0.9,0.2
			c-0.3,0.1-0.6,0.3-0.8,0.6c-0.2,0.2-0.4,0.5-0.6,0.9c-0.1,0.3-0.2,0.7-0.2,1.1v1.6c0,0.4,0.1,0.7,0.2,1c0.1,0.3,0.3,0.6,0.5,0.8
			c0.2,0.2,0.5,0.4,0.8,0.6c0.3,0.1,0.6,0.2,1,0.2c0.8,0,1.5-0.3,2-0.9C56.8,28.8,57,27.9,57,26.9z"/>
		<path d="M67.8,26.8c0,0.7-0.1,1.3-0.3,1.9c-0.2,0.6-0.5,1.1-0.8,1.5c-0.3,0.4-0.8,0.7-1.2,1c-0.5,0.2-1,0.3-1.6,0.3
			c-1.2,0-2.1-0.5-2.7-1.4h0v4.8h-1.4v-9.5c0-0.5,0-0.9,0-1.4c0-0.5,0-0.9-0.1-1.4H61v1.5h0.1c0.6-1.1,1.7-1.7,3-1.7
			c0.5,0,1,0.1,1.4,0.3c0.4,0.2,0.8,0.5,1.2,0.9c0.3,0.4,0.6,0.8,0.8,1.4C67.7,25.6,67.8,26.2,67.8,26.8z M66.4,26.9
			c0-0.5-0.1-0.9-0.2-1.3c-0.1-0.4-0.3-0.8-0.5-1.1c-0.2-0.3-0.5-0.5-0.8-0.7c-0.3-0.2-0.7-0.3-1.1-0.3c-0.3,0-0.6,0.1-0.9,0.2
			c-0.3,0.1-0.6,0.3-0.8,0.6c-0.2,0.2-0.4,0.5-0.6,0.9c-0.1,0.3-0.2,0.7-0.2,1.1v1.6c0,0.4,0.1,0.7,0.2,1c0.1,0.3,0.3,0.6,0.5,0.8
			c0.2,0.2,0.5,0.4,0.8,0.6c0.3,0.1,0.6,0.2,1,0.2c0.8,0,1.5-0.3,2-0.9C66.2,28.8,66.4,27.9,66.4,26.9z"/>
		<path d="M70.8,31.3h-1.4V18.5h1.4V31.3z"/>
		<path d="M79.9,26.4c0,0.3,0,0.5-0.1,0.7h-6c0,1,0.3,1.8,0.8,2.4c0.5,0.6,1.2,0.9,2.2,0.9c0.9,0,1.7-0.2,2.3-0.5l0.3,1
			c-0.8,0.4-1.7,0.5-2.8,0.5c-0.6,0-1.2-0.1-1.7-0.3c-0.5-0.2-0.9-0.5-1.3-0.9c-0.4-0.4-0.6-0.9-0.8-1.4c-0.2-0.5-0.3-1.1-0.3-1.8
			c0-0.7,0.1-1.3,0.3-1.9c0.2-0.6,0.5-1.1,0.8-1.5c0.3-0.4,0.8-0.7,1.2-1c0.5-0.2,1-0.3,1.6-0.3c0.5,0,1,0.1,1.4,0.3
			c0.4,0.2,0.8,0.5,1.1,0.8c0.3,0.4,0.5,0.8,0.7,1.3C79.8,25.3,79.9,25.8,79.9,26.4z M78.5,26.1c0-0.8-0.2-1.5-0.6-2
			c-0.4-0.5-0.9-0.7-1.7-0.7c-0.7,0-1.2,0.2-1.7,0.8c-0.4,0.5-0.7,1.2-0.8,1.9H78.5z"/>
		<g>
			<path d="M87.3,20c0,0.3-0.1,0.5-0.3,0.7c-0.2,0.2-0.4,0.3-0.7,0.3c-0.3,0-0.5-0.1-0.6-0.3c-0.2-0.2-0.3-0.4-0.3-0.7
				c0-0.3,0.1-0.5,0.3-0.7c0.2-0.2,0.4-0.3,0.7-0.3c0.3,0,0.5,0.1,0.7,0.3C87.2,19.5,87.3,19.7,87.3,20z M87.1,31.3h-1.4v-8.7h1.4
				V31.3z"/>
			<path d="M96.9,27.8c0,0.5-0.1,1-0.3,1.5c-0.2,0.4-0.5,0.8-0.9,1.1c-0.4,0.3-0.9,0.6-1.6,0.7c-0.6,0.2-1.4,0.3-2.3,0.3
				c-0.4,0-0.8,0-1.2,0c-0.4,0-0.8-0.1-1.2-0.1v-12c0.8-0.2,1.7-0.3,2.7-0.3c1.3,0,2.4,0.3,3.1,0.8c0.7,0.5,1.1,1.3,1.1,2.2
				c0,0.6-0.2,1.2-0.6,1.6c-0.4,0.5-0.9,0.8-1.5,1.1v0c0.7,0.2,1.3,0.5,1.8,1.1C96.7,26.4,96.9,27.1,96.9,27.8z M95.1,22.2
				c0-1.4-0.9-2.1-2.7-2.1c-0.6,0-1.1,0-1.4,0.1v4.1h1.5c0.8,0,1.4-0.2,1.9-0.6C94.8,23.3,95.1,22.8,95.1,22.2z M95.4,27.8
				c0-0.8-0.3-1.4-0.9-1.8c-0.6-0.4-1.4-0.7-2.3-0.7h-1.3v4.8c0.3,0.1,0.7,0.1,1.3,0.1c1,0,1.8-0.2,2.4-0.6
				C95.2,29.3,95.4,28.6,95.4,27.8z"/>
			<path d="M105.6,26.4c0,0.3,0,0.5-0.1,0.7h-6c0,1,0.3,1.8,0.8,2.4c0.5,0.6,1.3,0.9,2.2,0.9c0.9,0,1.7-0.2,2.3-0.5l0.3,1
				c-0.8,0.4-1.7,0.5-2.8,0.5c-0.6,0-1.2-0.1-1.7-0.3c-0.5-0.2-0.9-0.5-1.3-0.9c-0.4-0.4-0.6-0.9-0.8-1.4c-0.2-0.5-0.3-1.1-0.3-1.8
				c0-0.7,0.1-1.3,0.3-1.9c0.2-0.6,0.5-1.1,0.8-1.5c0.3-0.4,0.8-0.7,1.2-1c0.5-0.2,1-0.4,1.6-0.4c0.5,0,1,0.1,1.5,0.3
				c0.4,0.2,0.8,0.5,1.1,0.8c0.3,0.4,0.5,0.8,0.7,1.3C105.5,25.3,105.6,25.8,105.6,26.4z M104.2,26.1c0-0.8-0.2-1.5-0.6-2
				c-0.4-0.5-0.9-0.7-1.7-0.7c-0.7,0-1.2,0.3-1.7,0.8c-0.4,0.5-0.7,1.2-0.8,1.9H104.2z"/>
			<path d="M112.1,31.3l-0.1-1.1h-0.1c-0.6,0.9-1.5,1.3-2.6,1.3c-0.4,0-0.7-0.1-1-0.2c-0.3-0.1-0.6-0.3-0.8-0.5
				c-0.2-0.2-0.4-0.5-0.5-0.8c-0.1-0.3-0.2-0.6-0.2-1c0-1.1,0.4-1.9,1.3-2.4c0.9-0.5,2.1-0.8,3.8-0.8v-0.2c0-1.4-0.7-2.1-2-2.1
				c-0.8,0-1.6,0.2-2.2,0.6l-0.3-0.9c0.8-0.5,1.7-0.7,2.7-0.7c2.1,0,3.2,1.2,3.2,3.5v3.3c0,0.4,0,0.8,0,1.1c0,0.3,0.1,0.7,0.1,0.9
				H112.1z M111.8,26.8h-0.3c-2.3,0-3.5,0.7-3.5,2.1c0,0.5,0.1,0.9,0.4,1.2c0.3,0.3,0.6,0.4,1.1,0.4c0.3,0,0.5,0,0.8-0.1
				c0.3-0.1,0.5-0.2,0.7-0.4c0.2-0.2,0.4-0.4,0.5-0.6c0.1-0.3,0.2-0.5,0.2-0.8V26.8z"/>
			<path d="M121.2,24c-0.5-0.3-1.1-0.4-1.8-0.4c-0.5,0-0.9,0.1-1.3,0.3s-0.7,0.4-1,0.7c-0.3,0.3-0.5,0.7-0.6,1.1
				c-0.1,0.4-0.2,0.9-0.2,1.4c0,0.5,0.1,1,0.2,1.4c0.2,0.4,0.4,0.8,0.6,1.1c0.3,0.3,0.6,0.5,1,0.7c0.4,0.2,0.8,0.2,1.2,0.2
				c0.6,0,1.3-0.1,1.9-0.4l0.3,1c-0.7,0.3-1.5,0.5-2.5,0.5c-0.6,0-1.2-0.1-1.7-0.3c-0.5-0.2-1-0.5-1.3-0.9c-0.4-0.4-0.7-0.9-0.9-1.4
				c-0.2-0.5-0.3-1.1-0.3-1.8c0-0.7,0.1-1.3,0.3-1.9c0.2-0.6,0.5-1,0.9-1.5c0.4-0.4,0.9-0.7,1.4-1c0.6-0.2,1.2-0.3,1.8-0.3
				c0.9,0,1.6,0.2,2.2,0.5L121.2,24z"/>
			<path d="M130.6,26.9c0,0.7-0.1,1.3-0.3,1.9c-0.2,0.6-0.5,1-0.9,1.5c-0.4,0.4-0.8,0.7-1.3,1c-0.5,0.2-1.1,0.3-1.7,0.3
				c-0.6,0-1.1-0.1-1.6-0.3c-0.5-0.2-0.9-0.5-1.3-0.9c-0.4-0.4-0.6-0.9-0.8-1.4c-0.2-0.5-0.3-1.1-0.3-1.8c0-0.7,0.1-1.3,0.3-1.9
				c0.2-0.6,0.5-1,0.9-1.4c0.4-0.4,0.8-0.7,1.3-0.9c0.5-0.2,1.1-0.3,1.7-0.3c0.6,0,1.2,0.1,1.7,0.3c0.5,0.2,0.9,0.5,1.3,0.9
				c0.4,0.4,0.6,0.9,0.8,1.4C130.5,25.6,130.6,26.2,130.6,26.9z M129.2,26.9c0-0.5-0.1-0.9-0.2-1.4c-0.1-0.4-0.3-0.8-0.5-1.1
				c-0.2-0.3-0.5-0.5-0.8-0.7c-0.3-0.2-0.7-0.3-1.1-0.3c-0.4,0-0.8,0.1-1.1,0.3c-0.3,0.2-0.6,0.4-0.9,0.7c-0.2,0.3-0.4,0.7-0.6,1.1
				c-0.1,0.4-0.2,0.9-0.2,1.4c0,0.5,0.1,0.9,0.2,1.3c0.1,0.4,0.3,0.8,0.5,1.1c0.2,0.3,0.5,0.6,0.9,0.7c0.3,0.2,0.7,0.3,1.1,0.3
				c0.4,0,0.8-0.1,1.1-0.3c0.3-0.2,0.6-0.4,0.9-0.7c0.2-0.3,0.4-0.7,0.6-1.1C129.1,27.9,129.2,27.4,129.2,26.9z"/>
			<path d="M139.4,31.3H138v-5.1c0-1.8-0.7-2.7-2.1-2.7c-0.3,0-0.6,0.1-0.9,0.2c-0.3,0.1-0.5,0.3-0.7,0.5s-0.4,0.5-0.5,0.8
				c-0.1,0.3-0.2,0.6-0.2,1v5.3h-1.4v-6.4c0-0.3,0-0.7,0-1.1c0-0.4,0-0.8-0.1-1.2h1.2V24h0.1c0.2-0.5,0.6-0.9,1.1-1.2
				c0.5-0.3,1.1-0.5,1.7-0.5c0.9,0,1.6,0.3,2.2,1c0.5,0.6,0.8,1.5,0.8,2.7V31.3z"/>
		</g>
	</g>
	<g>
		<linearGradient id="SVGID_1_" gradientUnits="userSpaceOnUse" x1="20.5247" y1="6.7367" x2="20.5247" y2="33.2633">
			<stop  offset="0.2" style="stop-color:#06BBED"/>
			<stop  offset="1" style="stop-color:#744189"/>
		</linearGradient>
		<path class="st2" d="M20.5,6.7c-7.3,0-13.2,5.9-13.2,13.2c0,6.8,5.2,12.5,11.9,13.1v-0.4c-6.5-0.6-11.5-6.1-11.5-12.7
			c0-7,5.7-12.8,12.8-12.8c7,0,12.8,5.7,12.8,12.8c0,6.6-5.1,12.1-11.5,12.7V33c6.7-0.6,11.9-6.3,11.9-13.1
			C33.7,12.6,27.8,6.7,20.5,6.7z"/>
		<linearGradient id="SVGID_2_" gradientUnits="userSpaceOnUse" x1="20.5248" y1="6.7369" x2="20.5248" y2="33.2621">
			<stop  offset="0.2" style="stop-color:#06BBED"/>
			<stop  offset="1" style="stop-color:#744189"/>
		</linearGradient>
		<path class="st3" d="M9.7,19.9c0-6,4.9-10.9,10.9-10.9c6,0,10.9,4.9,10.9,10.9c0,5.6-4.2,10.2-9.6,10.8v0.4
			c5.6-0.6,10-5.4,10-11.2c0-6.2-5.1-11.3-11.3-11.3S9.3,13.6,9.3,19.9c0,5.8,4.4,10.6,10,11.2v-0.4C13.9,30,9.7,25.4,9.7,19.9z"/>
		<linearGradient id="SVGID_3_" gradientUnits="userSpaceOnUse" x1="20.5244" y1="6.737" x2="20.5244" y2="33.262">
			<stop  offset="0.2" style="stop-color:#06BBED"/>
			<stop  offset="1" style="stop-color:#744189"/>
		</linearGradient>
		<path class="st4" d="M11.6,19.9c0-4.9,4-9,9-9s9,4,9,9c0,4.5-3.4,8.3-7.7,8.9v0.4c4.6-0.6,8.1-4.5,8.1-9.3c0-5.2-4.2-9.4-9.4-9.4
			c-5.2,0-9.4,4.2-9.4,9.4c0,4.7,3.5,8.7,8.1,9.3v-0.4C14.9,28.1,11.6,24.4,11.6,19.9z"/>
		<linearGradient id="SVGID_4_" gradientUnits="userSpaceOnUse" x1="20.5247" y1="6.7361" x2="20.5247" y2="33.2638">
			<stop  offset="0.2" style="stop-color:#06BBED"/>
			<stop  offset="1" style="stop-color:#744189"/>
		</linearGradient>
		<path class="st5" d="M13.5,19.9c0-3.9,3.2-7.1,7.1-7.1c3.9,0,7.1,3.2,7.1,7.1c0,3.5-2.5,6.3-5.8,6.9v0.4c3.5-0.6,6.2-3.7,6.2-7.3
			c0-4.1-3.3-7.5-7.5-7.5c-4.1,0-7.5,3.3-7.5,7.5c0,3.7,2.7,6.8,6.2,7.3v-0.4C16,26.2,13.5,23.3,13.5,19.9z"/>
		<linearGradient id="SVGID_5_" gradientUnits="userSpaceOnUse" x1="20.5248" y1="6.7381" x2="20.5248" y2="33.2616">
			<stop  offset="0.2647" style="stop-color:#3EC0F0"/>
			<stop  offset="0.9168" style="stop-color:#744189"/>
		</linearGradient>
		<circle class="st6" cx="20.5" cy="19.9" r="1.7"/>
		<linearGradient id="SVGID_6_" gradientUnits="userSpaceOnUse" x1="20.5248" y1="6.7373" x2="20.5248" y2="33.2624">
			<stop  offset="0.2" style="stop-color:#3EC0F0"/>
			<stop  offset="1" style="stop-color:#744189"/>
		</linearGradient>
		<path class="st7" d="M15.4,19.9c0-2.8,2.3-5.1,5.1-5.1s5.1,2.3,5.1,5.1c0,2.4-1.7,4.4-3.9,5v0.4c2.5-0.6,4.3-2.8,4.3-5.4
			c0-3.1-2.5-5.6-5.6-5.6c-3.1,0-5.6,2.5-5.6,5.6c0,2.6,1.8,4.8,4.3,5.4v-0.4C17,24.3,15.4,22.3,15.4,19.9z"/>
		<linearGradient id="SVGID_7_" gradientUnits="userSpaceOnUse" x1="20.5248" y1="6.7354" x2="20.5248" y2="33.2637">
			<stop  offset="0.2" style="stop-color:#06BBED"/>
			<stop  offset="1" style="stop-color:#744189"/>
		</linearGradient>
		<path class="st8" d="M17.3,19.9c0-1.8,1.5-3.2,3.2-3.2c1.8,0,3.2,1.5,3.2,3.2c0,1.3-0.8,2.5-2,3v0.4c1.4-0.5,2.4-1.9,2.4-3.4
			c0-2-1.6-3.7-3.7-3.7s-3.7,1.6-3.7,3.7c0,1.6,1,2.9,2.4,3.4v-0.4C18.1,22.4,17.3,21.2,17.3,19.9z"/>
	</g>
</g>
</svg>
