<?xml version="1.0" encoding="utf-8"?>
<!-- Generator: Adobe Illustrator 19.2.1, SVG Export Plug-In . SVG Version: 6.00 Build 0)  -->
<svg version="1.1" id="Layer_1" xmlns="http://www.w3.org/2000/svg" xmlns:xlink="http://www.w3.org/1999/xlink" x="0px" y="0px"
	 viewBox="0 0 216.8 62.4" style="enable-background:new 0 0 216.8 62.4;" xml:space="preserve">
<style type="text/css">
	.st0{fill:#FFFFFF;}
</style>
<g>
	<g>
		<path class="st0" d="M104.1,22.1c-1.3,0.8-2.7,1.2-4.1,1.2c-2.5,0-4.7-1.4-4.7-4.8V9.9H93V7.2h2.3V2.6h3.6v4.6h4.9v2.7h-4.9v8
			c0,1.7,0.7,2.2,1.8,2.2c0.8,0,1.5-0.3,2.5-0.7L104.1,22.1z"/>
		<path class="st0" d="M109.4,9.9c1.1-2.2,3.1-3.4,5.7-3.4v3.4c-3.3-0.2-5.5,1.8-5.7,4.6v8.7h-3.6V6.6h3.6V9.9z"/>
		<path class="st0" d="M125.9,21.1c-1.2,1.5-3.1,2.2-5.5,2.2c-3.6,0-5.8-2.2-5.8-5.2c0-3,2.3-5,6.3-5h5v-0.5c0-2.1-1.3-3.3-4-3.3
			c-1.6,0-3.2,0.6-4.9,1.7l-1.5-2.5c2.3-1.4,4-2.1,7.2-2.1c4.3,0,6.7,2.2,6.7,5.8l0,10.9h-3.5V21.1z M125.8,17.3v-1.5h-4.5
			c-2.3,0-3.4,0.6-3.4,2.2c0,1.5,1.2,2.5,3.2,2.5C123.7,20.5,125.7,19.1,125.8,17.3z"/>
		<path class="st0" d="M146.3,9.2l-2,2.3c-1.2-1.2-2.7-1.9-4.7-1.9c-2.9,0-4.9,2.2-4.9,5.3s2.1,5.3,4.9,5.3c2.1,0,3.8-0.7,4.9-2l2,2
			c-1.5,2-3.9,3.1-7.1,3.1c-4.9,0-8.4-3.4-8.4-8.4c0-5,3.4-8.5,8.4-8.5C142.5,6.4,144.8,7.4,146.3,9.2z"/>
		<path class="st0" d="M152.5,18.5v4.7h-3.6V0h3.6v14l7.3-7.4h4.1l-6.2,6.4l6.6,10.2h-4.2l-4.9-7.6L152.5,18.5z"/>
		<path class="st0" d="M200,12.8v10.3h-3.6v-9.3c0-2.5-1.5-4.1-3.9-4.1c-2.8,0.1-4.6,2.3-4.6,5.2v8.2h-3.6v-9.3
			c0-2.5-1.5-4.1-3.9-4.1c-2.9,0.1-4.6,2.3-4.6,5.2v8.2h-3.6V6.6h3.6v3.2c1.2-2.3,3.3-3.3,6-3.3c3,0,5,1.5,5.8,4
			c1.1-2.8,3.3-4,6.3-4C197.7,6.4,200,8.9,200,12.8z"/>
		<path class="st0" d="M209.3,25.5c-1,2.6-2.9,3.9-5.4,3.9c-1.5,0-2.7-0.4-3.8-1.4l1.5-2.8c0.8,0.6,1.4,0.8,2.2,0.8
			c1.1,0,2-0.6,2.5-1.8l0.6-1.2l-6.9-16.4h3.7l5,12.6l4.6-12.6h3.6L209.3,25.5z"/>
	</g>
	<g>
		<path class="st0" d="M117.8,49.9c0,7-5.4,11.5-13.4,11.5c-4.3,0-8.2-1.4-11-3.3l2.8-5.4c2.2,1.6,5,2.5,7.7,2.5
			c3.8,0,6.1-2,6.1-5.1v-2.6c-1.6,2.1-4,3.3-7.1,3.3c-6.2,0-10.6-4.8-10.6-12c0-7,4.3-11.7,10.5-11.7c3.2,0,5.6,1.1,7.3,3.3v-3h7.9
			V49.9z M109.9,39.1c0-3.6-2.1-6-5.1-6c-3.1,0-5.2,2.5-5.2,6c0,3.5,2.1,6,5.2,6C107.8,45.1,109.9,42.6,109.9,39.1z"/>
		<path class="st0" d="M143.7,42h-17.4c0.8,2.9,2.9,4.6,5.8,4.6c2.2,0,4.3-0.9,5.9-2.5l4.2,4.1c-2.5,2.7-6.2,4.4-10.8,4.4
			c-8.1,0-13.1-5-13.1-12.6c0-7.7,5.2-12.7,12.9-12.7C139.9,27.2,144.2,32.9,143.7,42z M136.1,37.7c0-3-1.9-5-4.8-5
			c-2.8,0-4.6,2-5.1,5H136.1z"/>
		<path class="st0" d="M166.4,36v16.1h-7.7v-2.8c-1.6,2.1-4.2,3.2-7.6,3.2c-5.3,0-8.5-3.2-8.5-7.7c0-4.7,3.3-7.4,9.5-7.5h6.5V37
			c0-2.4-1.6-3.9-4.8-3.9c-2.1,0-4.8,0.7-7.4,2.1l-2.2-5.2c3.9-1.8,7.3-2.8,11.5-2.8C162.4,27.1,166.4,30.4,166.4,36z M158.6,43.8
			v-2.2h-5c-2.4,0-3.6,0.8-3.6,2.7c0,1.8,1.3,2.9,3.5,2.9C156,47.2,158.1,45.8,158.6,43.8z"/>
		<path class="st0" d="M176.5,31.6c1.7-2.9,4.5-4.5,8-4.5v7.1c-4.6-0.4-7.6,1.7-8,5.2v12.7h-7.9V27.5h7.9V31.6z"/>
	</g>
</g>
<g>
	<path class="st0" d="M6.2,31.2c0,5.2,1.1,10.2,3.3,15c1.9,4.4,5,8.3,9.2,11.5l-4.5,4.7c-1.6-1.3-2.7-2.3-3.3-3.1
		c-3.2-3.4-5.9-7.6-8-12.7C1,41.8,0,36.7,0,31.2s1-10.6,2.9-15.4c2.1-5.1,4.7-9.3,8-12.7c0.6-0.8,1.8-1.8,3.3-3.1l4.5,4.7
		C17.2,6,15.5,7.8,13.6,10c-1,1.3-2.3,3.4-3.9,6.2c-1,1.8-1.9,4.2-2.5,7.2C6.6,26.3,6.2,28.9,6.2,31.2z M24.4,21.5
		c-1.7,3.1-2.5,6.4-2.5,9.7s0.8,6.6,2.5,9.7c1.7,3.1,3.8,5.5,6.4,7.2l-4.5,4.9c-1.9-1.7-3.1-2.7-3.5-3.1C18,45,15.6,38.8,15.6,31.2
		s2.4-13.8,7.2-18.7c0.4-0.4,1.6-1.4,3.5-3.1l4.5,4.9C28.2,16,26.1,18.4,24.4,21.5z M43.7,43.7c-8.3,0-12.5-4.2-12.5-12.5
		s4.2-12.5,12.5-12.5s12.5,4.2,12.5,12.5S52,43.7,43.7,43.7z M63,41c1.7-3.1,2.5-6.4,2.5-9.7s-0.8-6.6-2.5-9.7
		c-1.7-3.1-3.8-5.5-6.4-7.2L61,9.4c1.9,1.7,3.1,2.7,3.5,3.1c4.8,4.9,7.2,11.2,7.2,18.7S69.3,45,64.5,50c-0.4,0.4-1.6,1.4-3.5,3.1
		l-4.5-4.9C59.1,46.5,61.3,44.1,63,41z M81.1,31.2c0-5.2-1.1-10.2-3.3-15c-1.9-4.4-5-8.3-9.2-11.5l4.5-4.7c1.6,1.3,2.7,2.3,3.3,3.1
		c3.2,3.4,5.9,7.6,8,12.7c1.9,4.9,2.9,10.1,2.9,15.4c0,5.5-1,10.6-2.9,15.4c-2.1,5.1-4.7,9.3-8,12.7c-0.5,0.6-1.6,1.7-3.3,3.1
		l-4.5-4.7c4.2-3.2,7.2-7.1,9.2-11.5C80,41.4,81.1,36.4,81.1,31.2z"/>
</g>
</svg>
