<?xml version="1.0" encoding="utf-8"?>
<!-- Generator: Adobe Illustrator 19.2.0, SVG Export Plug-In . SVG Version: 6.00 Build 0)  -->
<svg version="1.1" id="Layer_1" xmlns="http://www.w3.org/2000/svg" xmlns:xlink="http://www.w3.org/1999/xlink" x="0px" y="0px"
	 viewBox="0 0 89.6 64" style="enable-background:new 0 0 89.6 64;" xml:space="preserve">
<style type="text/css">
	.st0{fill:#FFFFFF;}
</style>
<g>
	<path class="st0" d="M6.4,32c0,5.3,1.1,10.5,3.4,15.4c2,4.5,5.1,8.5,9.4,11.8L14.6,64c-1.6-1.3-2.7-2.4-3.4-3.2
		C7.9,57.3,5.1,53,3,47.8C1,42.9,0,37.6,0,32c0-5.6,1-10.9,3-15.8c2.1-5.2,4.9-9.5,8.2-13C11.9,2.4,13,1.3,14.6,0l4.6,4.8
		c-1.6,1.3-3.3,3.1-5.2,5.4c-1.1,1.3-2.4,3.5-4,6.4c-1.1,1.9-1.9,4.3-2.6,7.4C6.7,26.9,6.4,29.6,6.4,32z M25,22
		c-1.7,3.2-2.6,6.5-2.6,10c0,3.5,0.9,6.8,2.6,10c1.7,3.2,3.9,5.7,6.6,7.4l-4.6,5c-2-1.7-3.2-2.8-3.6-3.2C18.5,46.1,16,39.7,16,32
		c0-7.7,2.5-14.1,7.4-19.2c0.4-0.4,1.6-1.5,3.6-3.2l4.6,5C28.9,16.3,26.7,18.8,25,22z M44.8,44.8C36.3,44.8,32,40.5,32,32
		c0-8.5,4.3-12.8,12.8-12.8c8.5,0,12.8,4.3,12.8,12.8C57.6,40.5,53.3,44.8,44.8,44.8z M64.6,42c1.7-3.2,2.6-6.5,2.6-10
		c0-3.5-0.9-6.8-2.6-10c-1.7-3.2-3.9-5.7-6.6-7.4l4.6-5c2,1.7,3.2,2.8,3.6,3.2c4.9,5.1,7.4,11.5,7.4,19.2c0,7.7-2.5,14.1-7.4,19.2
		c-0.4,0.4-1.6,1.5-3.6,3.2l-4.6-5C60.7,47.7,62.9,45.2,64.6,42z M83.2,32c0-5.3-1.1-10.5-3.4-15.4c-2-4.5-5.1-8.5-9.4-11.8L75,0
		c1.6,1.3,2.7,2.4,3.4,3.2c3.3,3.5,6.1,7.8,8.2,13c2,5.1,3,10.3,3,15.8c0,5.6-1,10.9-3,15.8c-2.1,5.2-4.9,9.5-8.2,13
		c-0.5,0.7-1.7,1.7-3.4,3.2l-4.6-4.8c4.3-3.3,7.4-7.3,9.4-11.8C82.1,42.5,83.2,37.3,83.2,32z"/>
</g>
</svg>
