<?xml version="1.0" encoding="utf-8"?>
<!-- Generator: Adobe Illustrator 19.2.1, SVG Export Plug-In . SVG Version: 6.00 Build 0)  -->
<svg version="1.1" id="Layer_1" xmlns="http://www.w3.org/2000/svg" xmlns:xlink="http://www.w3.org/1999/xlink" x="0px" y="0px"
	 viewBox="0 0 64 64" style="enable-background:new 0 0 64 64;" xml:space="preserve">
<style type="text/css">
	.st0{fill:#FFFFFF;}
</style>
<g>
	<path class="st0" d="M9.4,9.4C15.6,3.1,23.1,0,32,0s16.4,3.1,22.6,9.4S64,23.1,64,32s-3.1,16.4-9.4,22.6S40.9,64,32,64
		s-16.4-3.1-22.6-9.4S0,40.9,0,32S3.1,15.6,9.4,9.4z M14.3,52.9l0.3,0.3c0.7,0.6,1.8,1.3,3.3,2.3c-2.4-2.4-3.4-6.1-3-11.1l0.4-3.4
		c0.1-0.2,0-0.5-0.2-0.8c-0.2-0.3-0.4-0.6-0.4-0.8c0-0.7-0.2-1.1-0.6-1.3c-0.2-0.2-0.4-0.4-0.6-0.6c-0.9-0.9-1.4-1.7-1.7-2.4
		c-0.8-1.6-0.3-3.7,1.4-6.1c0.5-0.8,0.4-1.7-0.3-2.7c-0.7-1-1-1.7-1.1-1.9c0-0.3-0.2-0.6-0.5-0.9c-0.3-0.3-0.5-0.6-0.4-0.9
		c0.1-0.5-0.1-0.8-0.6-0.9c-0.3-0.2-0.5-0.3-0.7-0.4c-0.7-0.4-1-1-0.9-1.9c0.1-0.9,0-1.5-0.1-1.8c-3,5-4.4,10.5-3.9,16.4
		c0.4,5.9,2.5,11.1,6.2,15.6l0.1,0.1v0.1h0.1c0.6,0.8,1,1.3,1.3,1.6c0.2,0.2,0.5,0.4,0.8,0.7c0.3,0.3,0.5,0.5,0.6,0.6L14.3,52.9z
		 M20.1,56.7l1.1,0.6c0.6,0.2,1,0.3,1.4,0.4c1.8,0.7,3.9,1.1,6.1,1.4c4.3,0.5,8.2,0.1,11.9-1.1c2.6-0.9,4.6-1.8,6.1-2.9
		c0.3-0.2,0.6-0.8,0.9-1.7s0.5-1.5,0.6-1.7c0.3-0.6,0.5-1.6,0.5-3.2c0-1.6,0.5-2.7,1.2-3.5c0.5-0.6,0.8-1.1,0.9-1.6
		c0.1-0.5,0.1-1-0.1-1.6c-0.1-0.6-0.2-1.2-0.2-1.6c0-0.3,0.1-0.9,0.4-1.9s0.3-1.7,0.1-2.3c0-0.2-0.2-0.2-0.6-0.1
		c-0.4,0.1-0.6,0.1-0.7-0.1c-0.2-0.3-0.5-0.5-1.1-0.5c-0.5,0-1.1,0-1.7,0.1c-0.6,0.1-1,0.1-1.2,0.1c-1.1-0.2-2.7-1.3-4.7-3.3
		c-0.3-0.3-0.2-1.5,0.1-3.7c0.1-0.3,0.2-1,0.3-2s0.3-1.8,0.6-2.4s0.9-0.9,1.8-1.1c0.3-0.1,0.5-0.4,0.8-0.8c0.2-0.4,0.5-0.7,0.6-0.8
		c0.3-0.1,0.6-0.2,1.1-0.3c0.4-0.1,0.8-0.2,1.1-0.3c0.5-0.1,1.1-0.1,1.9,0.1s1.4,0.2,1.8,0.2c0.7,0,1.7,0.5,3.1,1.6
		c0.3,0.3,0.6,0.5,0.9,0.5s0.7,0.1,1.1,0.1c0.4,0,0.8,0,1.1,0.1c0.4-0.1,0.3-0.5-0.3-1.1c-0.3-0.2-0.7-0.3-1.1-0.3
		c-0.9-0.2-1.8-0.9-2.9-2.1c-1-1.2-1.8-1.9-2.3-2.2c-0.7-0.4-1.2-0.4-1.6,0l0.1,1.7c0,0.1-0.6,0.3-1.9,0.7c-0.9,0.2-1.7-0.3-2.4-1.4
		c-0.5-0.9-0.4-1.4,0.3-1.7H46c0.2-0.1,0.4-0.2,0.6-0.2s0.4-0.1,0.7-0.2c0.3-0.1,0.5-0.2,0.7-0.3s0.4-0.2,0.6-0.4s0.3-0.3,0.4-0.5
		c0.1-0.2,0.1-0.4,0-0.6s-0.1-0.5-0.1-1c-0.1-0.6-0.3-0.9-0.6-1c-0.4-0.1-0.7-0.3-1.1-0.6s-0.7-0.5-1.1-0.6c-0.5-0.1-0.7-0.8-0.7-2
		c0-0.7,0.2-1,0.7-1c0.2,0,0.4,0,0.6,0c-2.4-1.5-5.1-2.7-8.1-3.4c-0.4,1.1-0.8,1.7-1.1,1.7c-0.7,0.2-1.1,0.3-1.3,0.4
		c-0.2,0.2-0.4,0.5-0.7,0.9c-0.3,0.4-0.5,0.7-0.7,0.9c-0.2,0.2-0.4,0.4-0.6,0.5c-0.2,0.1-0.5,0.1-0.7-0.1s-0.5-0.6-0.8-1.2
		c-0.2-0.6-0.2-1.3,0.1-2.1C32.9,5.6,33,5,32.9,4.6H32h-0.4c0.7,1.3,0.3,2.2-1.1,2.7c-0.4,0-0.8-0.1-1.2-0.4
		c-0.4-0.2-0.8-0.3-1.2-0.2c-0.2,0-0.5-0.1-0.8-0.2c-0.3-0.1-0.6-0.2-0.8-0.1c-1.2,0.6-1.9,1.1-2,1.7c-0.2,0.9,0,1.4,0.4,1.5
		c0.5,0.1,1-0.1,1.6-0.6C27.8,7.7,29,7.4,30,8.1c0.5,0.4,0.7,1,0.7,2c0,0.4,0,0.7-0.1,1c0,0.3-0.2,0.6-0.4,0.9
		c-0.2,0.3-0.5,0.5-0.9,0.4c-0.1,0-0.3-0.1-0.5-0.2c-0.2-0.1-0.4-0.2-0.5-0.3s-0.3,0-0.6,0.1c-0.2,0.2-1.6,0.6-4.1,1.3
		c-0.6,0.1-1.3,0.3-2.1,0.6c-0.8,0.3-1.3,0.5-1.5,0.6c-1,0.4-1.6,1-1.7,1.7c0,1.3-0.1,2-0.4,2.1c-0.2,0.1-0.4-0.1-0.6-0.6
		c-0.2-0.5-0.6-1-1-1.6c-0.4-0.5-0.9-0.7-1.5-0.6c-1,0.1-1.9,0.5-2.7,1.4c-0.9,0.8-1.1,1.7-0.9,2.6c0.1,0.2,0.5,0.4,1.1,0.5
		c0.6,0.1,1,0.3,1.1,0.4c0.1,0.1-0.1,0.5-0.8,1.1c-0.1,0.2-0.1,0.4-0.1,0.7c0,0.3,0.1,0.7,0.2,1.2C13,24,13,24.3,13,24.4
		c0.1,0.7,0.5,1.2,1.1,1.6c0.7,0.4,1.3,0.3,1.9-0.1c0.5-0.5,1.1-0.6,2-0.3c3.7,2,5.9,3.3,6.4,3.9c0.2,0.2,0.5,0.9,1.1,2
		c0.5,1.1,1,1.8,1.4,2c0.1,0.1,0.6,0.3,1.6,0.7c1,0.4,1.7,0.8,2.1,1.3c0.4,0.6,0.4,1.2,0.1,1.8c-0.3,0.6-0.7,1.1-1.2,1.5
		c-0.2,0.1-0.6,0.8-1.1,2c-0.6,1.2-1,2-1.1,2.1c-0.2,0.3-1,0.6-2.3,1c-0.1,0-0.2,0.1-0.4,0.4c-0.2,0.2-0.4,0.5-0.5,0.7
		c-0.1,0.2-0.3,0.4-0.4,0.5c-0.2,0.2-0.5,0.6-1,1.3c-0.5,0.7-1,1.1-1.4,1.4c-2.2,1.5-3,3.6-2.6,6.3C18.9,55.6,19.4,56.3,20.1,56.7z
		 M46.4,13.4c0.6,1.2,0.7,2,0.4,2.1c-0.2,0.2-0.5,0.2-0.9,0.1c-0.4-0.1-0.7-0.4-0.9-0.9c-0.1-0.3-0.1-0.6-0.1-0.9l-0.1-0.4h-0.4
		c-0.6,0.2-0.9,0-0.9-0.6c0.1-0.2,0.3-0.4,0.7-0.6c0-0.1,0-0.2-0.1-0.3c-0.1-0.6,0-0.8,0.4-0.7C45.2,11.6,45.9,12.3,46.4,13.4z"/>
</g>
</svg>
