<?xml version="1.0" encoding="utf-8"?>
<!-- Generator: Adobe Illustrator 19.2.0, SVG Export Plug-In . SVG Version: 6.00 Build 0)  -->
<svg version="1.1" id="Layer_1" xmlns="http://www.w3.org/2000/svg" xmlns:xlink="http://www.w3.org/1999/xlink" x="0px" y="0px"
	 viewBox="0 0 64 64" style="enable-background:new 0 0 64 64;" xml:space="preserve">
<style type="text/css">
	.st0{fill:#FFFFFF;}
</style>
<g>
	<path class="st0" d="M9.4,9.4C15.6,3.1,23.2,0,32,0s16.4,3.1,22.6,9.4S64,23.2,64,32s-3.1,16.4-9.4,22.6S40.8,64,32,64
		s-16.4-3.1-22.6-9.4S0,40.8,0,32S3.1,15.6,9.4,9.4z M11.2,52.8c5.7,5.7,12.7,8.6,20.8,8.6s15-2.9,20.8-8.6s8.6-12.7,8.6-20.8
		s-2.9-15-8.6-20.8S40.1,2.6,32,2.6s-15,2.9-20.8,8.6S2.6,23.9,2.6,32S5.5,47,11.2,52.8z M32.6,15.1c2.6,0,4.7,0.8,6.5,2.3
		s2.7,3.6,2.7,6.2c0,2.7-1.3,5.2-4,7.7c-1.6,1.6-2.6,2.9-2.9,3.7c-0.3,0.8-0.5,2.3-0.6,4.5h-2.9c0.1-3.9,1.6-7.2,4.6-9.8
		c1.9-1.7,2.9-3.7,2.9-5.8c0-1.8-0.6-3.3-1.8-4.5c-1.2-1.1-2.8-1.7-4.6-1.7c-2.5,0-4.3,0.6-5.6,1.8c-1.3,1.2-1.9,3-1.8,5.2h-2.9
		C22.2,18.3,25.6,15.1,32.6,15.1z M30.8,44.5c0.5-0.5,1.1-0.8,1.8-0.8c0.7,0,1.3,0.3,1.8,0.8c0.5,0.5,0.8,1.1,0.8,1.8
		s-0.3,1.3-0.8,1.8s-1.1,0.8-1.8,0.8c-0.7,0-1.3-0.3-1.8-0.8S30,47,30,46.3S30.3,45,30.8,44.5z"/>
</g>
</svg>
