<svg id="Layer_1" xmlns="http://www.w3.org/2000/svg" viewBox="0 0 64 64"><style>.st0{fill:#FFFFFF;}</style><path class="st0" d="M37.5 32c0 3.1-2.5 5.5-5.5 5.5S26.5 35 26.5 32s2.5-5.5 5.5-5.5 5.5 2.5 5.5 5.5zm0 0"/><path class="st0" d="M62.7 26.5L55 25.1c-.5-1.6-1.1-3.1-1.8-4.5l4.5-6.5c.4-.6.3-1.5-.2-2L52 6.6c-.5-.5-1.4-.6-2-.2l-6.5 4.5c-1.4-.8-3-1.4-4.6-1.9l-1.4-7.7c-.3-.7-1-1.3-1.7-1.3H28c-.7 0-1.4.6-1.6 1.3L25 9c-1.5.5-3 1.1-4.4 1.8l-6.4-4.4c-.6-.4-1.5-.3-2 .2l-5.5 5.5c-.5.5-.6 1.4-.2 2l4.4 6.5c-.7 1.4-1.4 2.9-1.8 4.4l-7.7 1.4c-.8.3-1.4 1-1.4 1.7v7.8c0 .7.6 1.4 1.3 1.6L9 38.9c.5 1.6 1.1 3.1 1.9 4.5l-4.4 6.4c-.4.6-.3 1.5.2 2l5.5 5.5c.5.5 1.4.6 2 .2l6.4-4.4c1.4.7 2.8 1.4 4.4 1.8l1.4 7.7c.1.7.8 1.3 1.6 1.3h7.8c.7 0 1.4-.6 1.6-1.3l1.4-7.7c1.6-.5 3.1-1.1 4.6-1.9l6.5 4.4c.6.4 1.5.3 2-.2l5.5-5.5c.5-.5.6-1.4.2-2l-4.4-6.5c.8-1.4 1.4-3 1.9-4.6l7.7-1.4c.7-.1 1.3-.8 1.3-1.6v-7.8c-.1-.4-.7-1.1-1.4-1.3zM32 45.4c-7.4 0-13.3-6-13.3-13.4s6-13.3 13.3-13.3c7.4 0 13.3 6 13.3 13.3 0 7.4-5.9 13.4-13.3 13.4zm0 0"/></svg>