<svg id="Layer_1" xmlns="http://www.w3.org/2000/svg" xmlns:xlink="http://www.w3.org/1999/xlink" viewBox="0 0 59.9 64"><style>.st0{clip-path:url(#SVGID_2_);fill:#FFFFFF;}</style><defs><path id="SVGID_1_" d="M0 0h59.9v64H0z"/></defs><clipPath id="SVGID_2_"><use xlink:href="#SVGID_1_" overflow="visible"/></clipPath><path class="st0" d="M2.3 38h2.5v23.7c0 1.3 1 2.3 2.3 2.3h45.7c1.3 0 2.3-1 2.3-2.3V38h2.5c1.3 0 2.3-.9 2.3-2.3V19.2c0-1.3-1-2.4-2.3-2.4H46.3c5.3-2.8 7.9-5.3 8.3-8.3.2-1.8-.3-4.4-4.2-6.7-4.1-2.5-7.5-2-9.7-1.1-3.5 1.4-6.6 4.9-9.2 10.5-.4.8-.7 1.6-1 2.4-.3-.8-.6-1.6-1-2.4-2.6-5.5-5.7-9-9.2-10.5-2.2-.9-5.5-1.4-9.7 1.1-3.9 2.4-4.4 5-4.2 6.8.4 2.9 3 5.5 8.3 8.3H2.3c-1.3 0-2.3 1-2.3 2.4v16.5C0 37.1 1 38 2.3 38zm7.3 0h18v21.1h-18V38zm40.7 21.1h-18V38h18v21.1zM55 33.2H32.3V21.6H55v11.6zm-19-20c2-4.3 4.3-7.1 6.7-8.1.6-.2 1.2-.4 1.8-.4 1.1 0 2.3.4 3.5 1.1 1.2.8 2 1.6 2 2-.3 2.2-7.3 6-15.3 8.5.3-.9.7-2 1.3-3.1zM11.2 7.9c-.1-.5.7-1.3 2-2 1.2-.8 2.4-1.1 3.5-1.1.6 0 1.2.1 1.8.4 3.7 1.5 6.5 7.1 8.1 11.3-8.1-2.6-15.1-6.4-15.4-8.6zM4.8 21.6h22.7v11.6H4.8V21.6zm0 0"/></svg>