<svg id="Layer_1" xmlns="http://www.w3.org/2000/svg" viewBox="0 0 79.8 64"><style>.st0{fill:#FFFFFF;}</style><path class="st0" d="M24.4 28.9h-8.6V2.6c0-1.4-1.2-2.6-2.6-2.6-1.4 0-2.6 1.2-2.6 2.6v26.3H2.7C1.2 28.9 0 30 0 31.4v11.9C0 44.8 1.2 46 2.7 46h7.8v15.3c0 1.4 1.2 2.6 2.6 2.6 1.4 0 2.6-1.2 2.6-2.6V46h8.6c1.4 0 2.8-1.2 2.8-2.6v-12c.1-1.4-1.2-2.5-2.7-2.5zm-2.9 11.9H5.3v-7h16.2v7zm32-30.2c0-1.4-1.1-2.7-2.5-2.7h-8.9V2.6c0-1.4-1.2-2.6-2.6-2.6-1.4 0-2.6 1.2-2.6 2.6v5.3h-7.6c-1.4 0-2.5 1.2-2.5 2.7v11.9c0 1.4 1 2.5 2.5 2.5h7.6v36.4c0 1.4 1.2 2.6 2.6 2.6 1.4 0 2.6-1.2 2.6-2.6V25H51c1.4 0 2.5-1 2.5-2.5V10.6zm-5.7 9.6H31.6v-7h16.2v7zm29.6 19.3h-9V2.6c0-1.4-1.2-2.6-2.6-2.6-1.4 0-2.6 1.2-2.6 2.6v36.8h-7.5c-1.4 0-2.6 1.3-2.6 2.8v11.9c0 1.4 1.1 2.8 2.6 2.8h7.5v4.4c0 1.4 1.2 2.6 2.6 2.6 1.4 0 2.6-1.2 2.6-2.6v-4.4h9c1.4 0 2.4-1.4 2.4-2.8V42.2c0-1.4-1-2.7-2.4-2.7zm-2.9 11.8H58.3v-7h16.2v7zm0 0"/></svg>